<mxfile host="app.diagrams.net" modified="2023-04-17T13:27:32.612Z" agent="Mozilla/5.0 (Windows NT 10.0; Win64; x64; rv:109.0) Gecko/20100101 Firefox/112.0" etag="058SWCdRnTFquXUZuVv6" version="21.1.8" type="github">
  <diagram name="第 1 页" id="7n7bSdjgMh7ok8gSC0js">
    <mxGraphModel dx="1050" dy="558" grid="1" gridSize="10" guides="1" tooltips="1" connect="1" arrows="1" fold="1" page="1" pageScale="1" pageWidth="827" pageHeight="1169" math="0" shadow="0">
      <root>
        <mxCell id="0" />
        <mxCell id="1" parent="0" />
        <mxCell id="n1FAAtHkUNfL_HuKw8F_-1" value="校园即时通讯系统" style="rounded=0;whiteSpace=wrap;html=1;" vertex="1" parent="1">
          <mxGeometry x="330" y="10" width="120" height="60" as="geometry" />
        </mxCell>
        <mxCell id="n1FAAtHkUNfL_HuKw8F_-2" style="edgeStyle=orthogonalEdgeStyle;rounded=0;orthogonalLoop=1;jettySize=auto;html=1;exitX=0.5;exitY=1;exitDx=0;exitDy=0;" edge="1" parent="1" source="n1FAAtHkUNfL_HuKw8F_-1" target="n1FAAtHkUNfL_HuKw8F_-1">
          <mxGeometry relative="1" as="geometry" />
        </mxCell>
        <mxCell id="n1FAAtHkUNfL_HuKw8F_-3" value="账号" style="rounded=0;whiteSpace=wrap;html=1;" vertex="1" parent="1">
          <mxGeometry x="60" y="130" width="120" height="60" as="geometry" />
        </mxCell>
        <mxCell id="n1FAAtHkUNfL_HuKw8F_-4" value="好友" style="rounded=0;whiteSpace=wrap;html=1;" vertex="1" parent="1">
          <mxGeometry x="220" y="130" width="120" height="60" as="geometry" />
        </mxCell>
        <mxCell id="n1FAAtHkUNfL_HuKw8F_-5" value="消息" style="rounded=0;whiteSpace=wrap;html=1;" vertex="1" parent="1">
          <mxGeometry x="360" y="130" width="120" height="60" as="geometry" />
        </mxCell>
        <mxCell id="n1FAAtHkUNfL_HuKw8F_-6" value="系统" style="rounded=0;whiteSpace=wrap;html=1;" vertex="1" parent="1">
          <mxGeometry x="500" y="130" width="120" height="60" as="geometry" />
        </mxCell>
        <mxCell id="n1FAAtHkUNfL_HuKw8F_-7" value="动态" style="rounded=0;whiteSpace=wrap;html=1;" vertex="1" parent="1">
          <mxGeometry x="640" y="130" width="120" height="60" as="geometry" />
        </mxCell>
      </root>
    </mxGraphModel>
  </diagram>
</mxfile>
